<svg id="Capa_1" enable-background="new 0 0 512 512" height="512" viewBox="0 0 512 512" width="512" xmlns="http://www.w3.org/2000/svg"><g><g><g><g><g><g><g><g><g><circle cx="256" cy="256" fill="#b674f2" r="256"/></g></g></g></g></g></g></g></g><path d="m277.876 511.078c123.375-10.441 221.823-108.38 233.055-231.529l-163.119-163.118-4.212 19.077-60.974-60.974-36.747-3.823-81.55 301.447 44.081 44.081-16.916 8.457z" fill="#8f4cd6"/><path d="m323.671 105.772h-41.266c2.774-4.622 4.369-10.032 4.369-15.814 0-16.997-13.778-30.774-30.775-30.774s-30.775 13.778-30.775 30.774c0 5.783 1.595 11.193 4.369 15.814h-41.266c-18.045 0-32.673 14.628-32.673 32.673v211.551c0 18.045 14.628 32.673 32.673 32.673h3.164v42.027h26.389v-42.027h24.923v90.831h26.389v-90.832h24.923v42.027h26.389v-42.027h3.164c18.045 0 32.673-14.628 32.673-32.673v-211.55c.003-18.045-14.625-32.673-32.67-32.673zm-67.671-28.401c6.952 0 12.587 5.635 12.587 12.587s-5.635 12.587-12.587 12.587-12.587-5.635-12.587-12.587 5.635-12.587 12.587-12.587z" fill="#fff"/><path d="m323.671 105.772h-41.266c2.774-4.622 4.369-10.032 4.369-15.814 0-16.997-13.778-30.774-30.775-30.774-.005 0-.009 0-.014 0v18.188h.014c6.952 0 12.587 5.635 12.587 12.587s-5.635 12.587-12.587 12.587c-.005 0-.009 0-.014 0l.006 370.956h13.202v-90.832h24.923v42.027h26.389v-42.027h3.164c18.045 0 32.673-14.628 32.673-32.673v-211.552c.002-18.045-14.626-32.673-32.671-32.673z" fill="#e9edf5"/><g><path d="m172.575 197.945v151.999c0 8.374 6.788 15.162 15.162 15.162h136.526c8.374 0 15.162-6.788 15.162-15.162v-151.999z" fill="#ff73a5"/></g><g><path d="m255.992 197.945v167.16h68.271c8.374 0 15.162-6.788 15.162-15.162v-151.998z" fill="#ff468c"/></g><g><g><path d="m212.992 267.176c0-12.311 9.98-22.29 22.29-22.29 9.4 0 17.433 5.811 20.71 14.043 3.277-8.232 11.326-14.043 20.726-14.043 12.311 0 22.29 9.98 22.29 22.29 0 30.491-43.016 50.988-43.016 50.988s-43-21.977-43-50.988z" fill="#fff"/></g></g><g><g><path d="m276.718 244.886c-9.4 0-17.449 5.811-20.726 14.043-.004-.011.004-.021 0-.032v59.26c.004.002 0 .007 0 .007s43.016-20.497 43.016-50.988c0-12.311-9.979-22.29-22.29-22.29z" fill="#e9edf5"/></g></g></g></svg>